<svg width="181" height="59" viewBox="0 0 181 59" fill="none" xmlns="http://www.w3.org/2000/svg"><path d="M73.143 7.635h3.383v7.81h.087c.26-.695.608-1.476.868-2.257l2.343-5.64h3.73l-3.904 7.636 3.904 9.978h-3.73l-2.517-7.288-.78 1.388v5.9h-3.384V7.635zM95.007 15.965c0 6.594-2.342 9.284-5.64 9.284-3.99 0-5.552-4.165-5.552-9.024 0-4.859 1.909-8.85 5.726-8.85 4.252 0 5.466 4.598 5.466 8.59zm-7.635.347c0 3.99.78 5.986 2.082 5.986 1.389 0 1.996-2.602 1.996-6.16 0-3.037-.434-5.813-1.996-5.813-1.301 0-2.082 2.17-2.082 5.987zM96.743 21.691c.867.434 1.909.694 2.863.694 1.648 0 2.343-.867 2.343-1.995 0-1.215-.781-1.91-2.256-2.864-2.343-1.474-3.297-3.297-3.297-4.858 0-2.777 1.822-5.12 5.553-5.12.954 0 1.908.174 2.776.608l-.521 2.95c-.694-.434-1.475-.607-2.255-.607-1.475 0-2.17.867-2.17 1.822 0 1.04.521 1.561 2.43 2.69 2.342 1.387 3.123 3.123 3.123 5.032 0 3.21-2.342 5.292-5.813 5.292-1.128 0-2.256-.26-3.384-.694l.608-2.95zM118.087 18.915a118.88 118.88 0 01-.174-5.813h-.087c-.347 1.822-.78 3.99-1.127 5.379l-1.475 6.247h-2.43l-1.475-6.16a56.223 56.223 0 01-1.041-5.467h-.087c-.087 1.91-.173 4.078-.26 5.814l-.26 6.073h-2.95l1.214-17.44h3.558l1.388 6.334c.52 2.17.954 4.165 1.215 6.074h.086a61.378 61.378 0 011.128-6.074l1.389-6.333h3.557l1.041 17.44h-3.037l-.173-6.074zM131.275 17.353h-3.991v4.772h4.512v2.95H123.9V7.549h7.635v2.95h-4.164v3.99h3.991l-.087 2.864zM135.96 10.759h-3.037V7.635h9.631v3.124h-3.123v14.316h-3.384l-.087-14.316zM147.674 7.635v17.527h-3.384V7.635h3.384zM150.71 7.635h3.384v7.81h.087c.26-.695.607-1.476.867-2.257l2.343-5.64h3.731l-3.904 7.55 3.991 9.89h-3.731l-2.516-7.201-.781 1.388v5.987h-3.384V7.635h-.087zM165.634 21.17l-.781 3.992h-3.297l3.817-17.44h4.078l3.297 17.44h-3.297l-.78-3.991h-3.037zm2.776-2.69l-.607-3.643a200.453 200.453 0 01-.607-3.991h-.087c-.174 1.128-.434 2.95-.608 3.99l-.694 3.645h2.603z" fill="#8EAE29"/><path d="M73.056 30.107c1.388-.26 2.863-.433 4.251-.433 2.43 0 4.338.347 5.727 1.648 1.215 1.128 1.822 2.863 1.822 4.599 0 2.255-.694 3.904-1.735 5.032-1.302 1.388-3.471 1.995-5.12 1.995h-.78v7.81h-4.078l-.087-20.65zm4.078 9.544c.173.087.434.087.694.087 2.082 0 3.037-1.475 3.037-3.47 0-1.822-.781-3.297-2.69-3.297-.347 0-.694.086-1.041.173v6.508zM87.372 30.107c1.475-.26 2.95-.433 4.512-.433 2.256 0 4.251.347 5.64 1.561 1.301 1.128 1.648 2.517 1.648 4.339.087 2.255-1.215 4.338-3.21 5.292v.087c1.475.607 2.169 1.909 2.603 4.165.434 2.342.954 4.945 1.301 5.726h-4.338c-.52-1.648-.781-3.297-1.041-5.032-.347-2.603-1.041-3.384-2.43-3.384h-.607v8.416h-4.078V30.107zm4.078 9.197h.694c1.735 0 2.777-1.475 2.777-3.297s-.695-3.036-2.603-3.123c-.347 0-.694 0-.955.087l.087 6.333zM114.443 39.825c0 7.896-2.777 11.106-6.768 11.106-4.772 0-6.681-5.032-6.681-10.846 0-5.813 2.256-10.759 6.941-10.759 5.119.174 6.508 5.727 6.508 10.499zm-9.197.434c0 4.772.867 7.201 2.602 7.201 1.649 0 2.343-3.123 2.343-7.375 0-3.73-.607-7.028-2.429-7.028-1.562 0-2.516 2.69-2.516 7.202zM117.046 29.847h9.197v3.557h-5.033v5.38h4.772v3.384h-4.772v8.676h-4.078l-.086-20.997zM129.279 29.847h9.197v3.557h-5.032v5.38h4.772v3.384h-4.772v8.676h-4.078l-.087-20.997z" fill="#434242"/><path d="M138.65 48.415c-.087-1.389.954-2.603 2.429-2.69 1.302 0 2.343 1.041 2.343 2.69 0 1.735-.954 2.69-2.429 2.69-1.215 0-2.343-1.042-2.343-2.69zM146.285 30.107c1.475-.26 2.95-.433 4.512-.433 2.256 0 4.252.347 5.64 1.561 1.301 1.128 1.648 2.517 1.648 4.339.087 2.255-1.214 4.338-3.21 5.292v.087c1.475.607 2.169 1.909 2.603 4.165.434 2.342.954 4.945 1.301 5.726h-4.251c-.521-1.648-.781-3.297-1.041-5.032-.347-2.603-1.041-3.384-2.43-3.384h-.607v8.416h-4.078l-.087-20.737zm4.078 9.197h.694c1.736 0 2.777-1.475 2.777-3.297s-.694-3.036-2.603-3.123c-.347 0-.694 0-.955.087l.087 6.333zM164.94 29.847v13.709c0 3.123.954 3.991 1.995 3.991 1.215 0 1.996-.868 1.996-3.991V29.847h4.078v12.928c0 5.38-1.996 8.33-6.074 8.33-4.425 0-6.16-3.037-6.16-8.33V29.76l4.165.087z" fill="#FF711C"/><path d="M43.643 39.478l7.201 9.978c0 .173.087.347.087.52.087 1.042-.434 3.21-2.516 4.686l-.087.087c-3.558 2.169-5.64 3.557-6.334 4.251-.694-.607-2.776-2.082-6.334-4.252l-.086-.086c-2.083-1.562-2.603-3.731-2.517-4.685 0-.26.087-.521.087-.695l.26-.26 7.289-9.457.26.087v3.47c0 .607.434 1.041 1.041 1.041.52 0 1.041-.434 1.041-1.04v-3.471c.26-.087.434-.174.608-.174zM26.29 31.409l11.453 3.818v.52l-3.297 1.041c-.521.174-.868.781-.608 1.302.174.52.781.78 1.302.694l3.297-1.041c.173.26.347.52.607.78l-7.115 9.371c-.086.087-.086.174-.173.347l-.52.26c-.521.174-1.042.26-1.563.26a6.13 6.13 0 01-3.644-1.214l-.086-.087c-3.124-2.69-5.206-4.251-5.987-4.685.434-.78 1.128-3.297 2.082-7.288v-.174c.868-2.43 2.69-3.644 3.731-3.817.087 0 .26-.087.52-.087zM36.094 16.225c2.516 0 4.252 1.475 4.772 2.343l.26.52v12.06l-.78.26-1.996-2.776c-.347-.433-.954-.607-1.475-.26-.434.347-.607.954-.26 1.475l1.995 2.777c-.173.173-.26.347-.434.607L26.55 29.326l-.26-.26c-.694-.78-1.475-2.863-.781-5.292l.087-.174c1.561-3.818 2.429-6.247 2.602-7.115.434.087.781.087 1.215.087 1.996 0 5.293-.26 6.334-.347h.347zM48.241 16.225h.174c2.863.26 5.032.347 6.334.347.433 0 .867 0 1.214-.087.174.868 1.041 3.297 2.603 7.115l.087.174c.78 2.429-.087 4.511-.781 5.292l-.434.434-11.54 3.904a7.62 7.62 0 00-.52-.867l1.995-2.777c.348-.434.26-1.128-.26-1.388-.173-.087-.347-.173-.607-.173-.347 0-.608.173-.868.433l-1.995 2.777c-.174-.087-.26-.087-.434-.174v-12.32l.173-.347c.608-.868 2.343-2.343 4.86-2.343zM58.132 31.582l.434.087c1.041.174 2.863 1.388 3.731 3.818l.087.173c.954 3.992 1.648 6.42 2.082 7.289-.78.433-2.776 1.995-5.987 4.685l-.086.087c-1.042.78-2.343 1.214-3.731 1.214a4.91 4.91 0 01-1.562-.26l-.434-.173-7.375-10.152c.174-.174.26-.347.434-.52l3.297 1.04c.087 0 .174.087.347.087.607 0 1.041-.433 1.041-1.04 0-.435-.26-.868-.694-.955L46.42 35.92v-.347l11.713-3.992zM41.994 33.23h.087c.954.088 1.822.695 2.082 1.65v.086c.087.174.087.347.087.52 0 .695-.347 1.389-.955 1.823h-.086c-.347.26-.868.434-1.302.434h-.173c-.347 0-.694-.174-1.041-.347-.868-.521-1.215-1.562-.955-2.517.347-.954 1.215-1.648 2.256-1.648z" fill="#8EAE29"/><path d="M14.403 13.275c-.087-.087-.26-.087-.347-.087v-2.082a.593.593 0 00-.607-.607.593.593 0 00-.608.607v2.082l-.173.087-4.339-5.64c-.086-.173-.173-.26-.173-.26 0-.087 0-.26-.087-.434 0-1.128.52-2.169 1.475-2.863h.087c1.301-.78 2.603-1.562 3.73-2.516 1.215.954 2.43 1.822 3.732 2.516h.086c.955.607 1.475 1.735 1.475 2.776 0 .087 0 .26-.086.347l-4.165 6.074zM3.991 18.047l-.434-.087a3.64 3.64 0 01-2.256-2.256v-.086A35.807 35.807 0 000 11.28c1.215-.868 2.43-1.736 3.557-2.777l.087-.087c.781-.434 1.475-.694 2.343-.694.347 0 .607.087.954.174l.347.173c0 .087.087.174.087.174l4.252 5.553c-.174.173-.26.26-.348.434l-1.995-.608c-.347-.087-.694.087-.781.434-.087.347.087.694.434.78l1.995.608v.347l-6.94 2.256zM9.891 27.244h-.087c-.607-.087-2.603-.173-3.817-.173h-.781a35.506 35.506 0 00-1.562-4.252v-.087c-.347-1.04-.173-2.255.434-3.123l.173-.174 6.942-2.342c.086.086.173.26.26.347l-1.215 1.648c-.173.26-.087.694.174.868.26.173.607.087.867-.174l1.215-1.648c.174.087.347.087.52.173v7.202c-.086.087-.086.173-.173.347-.78.954-1.822 1.475-2.95 1.388zM17.093 27.07c-1.128 0-2.17-.52-2.864-1.388l-.086-.26v-7.288c.086 0 .173-.087.26-.087l1.215 1.649c.086.173.26.26.52.26.347 0 .608-.26.608-.607 0-.087 0-.26-.087-.348l-1.215-1.648c.174-.174.26-.347.347-.52l6.941 2.342.26.26c.695.955.781 2.083.434 3.124l-.086.087a35.512 35.512 0 00-1.562 4.251h-.694c-.781 0-2.082.087-3.818.174h-.173zM22.993 18.047l-7.028-2.43v-.173l1.909-.607c.347-.087.52-.434.433-.781-.086-.347-.433-.52-.78-.434l-1.996.607c-.087-.086-.174-.26-.26-.347l4.425-6.073.347.087a3.12 3.12 0 01.954-.174c.78 0 1.562.26 2.256.694l.087.087c1.04 1.041 2.169 1.909 3.47 2.777-.52 1.388-.954 2.863-1.214 4.338v.086c-.348 1.042-1.128 1.91-2.256 2.256l-.347.087zM13.362 17.18c-.608 0-1.128-.434-1.302-.955-.173-.607.087-1.215.52-1.475.174-.087.435-.174.608-.174h.087c.26 0 .52.087.78.26.348.261.521.695.521 1.129 0 .087 0 .26-.086.347 0 .347-.434.78-1.128.867z" fill="#E25622"/><path d="M35.313 6.16l-.173-.086V4.946a.373.373 0 00-.347-.347.373.373 0 00-.347.347v1.128h-.087l-2.17-2.95-.086-.087v-.26c0-.608.26-1.128.78-1.476C33.579.868 34.186.434 34.88 0c.608.52 1.302.954 1.996 1.301.52.348.78.868.78 1.475v.174l-2.342 3.21zM29.934 8.676h-.174c-.52-.173-.954-.607-1.128-1.214v-.087c-.173-.78-.347-1.562-.694-2.256a10.4 10.4 0 001.822-1.475c.347-.26.694-.347 1.128-.347.174 0 .347 0 .52.087l.174.087s0 .086.087.086l2.256 2.95c-.087.087-.174.174-.174.26l-1.04-.346h-.087c-.174 0-.348.086-.348.26 0 .173.087.26.26.347l1.042.347v.174l-3.644 1.127zM32.97 13.448c-.346 0-1.388-.086-1.995-.086h-.347c-.174-.781-.52-1.475-.781-2.256v-.087c-.174-.52-.087-1.215.26-1.648l.087-.087 3.644-1.215c0 .087.087.087.174.174l-.608.867c-.086.174-.086.347.087.434.174.087.347.087.434-.087l.607-.867c.087 0 .174.086.26.086v3.731l-.086.174c-.52.607-1.128.867-1.735.867zM36.788 13.448c-.607 0-1.128-.26-1.475-.694l-.087-.086V8.85l.174-.087.607.868c.087.087.174.173.26.087a.373.373 0 00.348-.347c0-.087 0-.174-.087-.174l-.607-.868c.086-.086.086-.173.173-.26l3.644 1.215.087.087c.347.52.434 1.127.26 1.648v.087a9.907 9.907 0 00-.78 2.256h-.348c-.52 0-1.214.086-2.169.086zM39.825 8.676l-3.644-1.214v-.087l1.041-.347c.174-.087.26-.26.174-.434-.087-.087-.174-.173-.26-.173h-.088l-1.04.347c0-.087-.087-.087-.087-.174l2.255-3.123.087-.087c.174-.087.347-.087.52-.087.435 0 .782.174 1.129.347.607.52 1.214 1.041 1.822 1.475-.26.781-.52 1.475-.608 2.256v.087c-.173.52-.607 1.04-1.127 1.214h-.174zM34.88 8.156c-.348 0-.608-.174-.695-.52a.7.7 0 01.26-.782c.087-.086.26-.086.348-.086h.086c.174 0 .26.086.434.173s.26.347.26.52v.174c-.086.347-.346.52-.694.52z" fill="#C5C6C6"/><path d="M180.557 15.357h-6.073v3.037h6.073v-3.037z" fill="#8EAE29"/></svg>