<svg width="39" height="22" viewBox="0 0 39 22" fill="none" xmlns="http://www.w3.org/2000/svg">
<circle cx="10" cy="2" r="2" fill="white"/>
<path d="M20 5.5C18.5 5.5 19.1046 5.5 18 5.5C16.8954 5.5 17.5 5.5 16 5.5C16.5 4.5 17 4 18 4C19 4 19.5 4.5 20 5.5Z" fill="white"/>
<path d="M16 16.5C17.5 16.5 16.8954 16.5 18 16.5C19.1046 16.5 18.5 16.5 20 16.5C19.5 17.5 19 18 18 18C17 18 16.5 17.5 16 16.5Z" fill="white"/>
<circle cx="2" cy="6" r="2" fill="white"/>
<circle cx="2" cy="16" r="2" fill="white"/>
<circle cx="10" cy="20" r="2" fill="white"/>
<path d="M7.76758 7.49063V14.6H6.8252V7.49063H7.76758ZM10.7461 10.6889V11.4604H7.5625V10.6889H10.7461ZM11.2295 7.49063V8.26212H7.5625V7.49063H11.2295ZM13.3633 7.49063V14.6H12.4209V7.49063H13.3633ZM20.5459 7.49063V14.6H19.5986L16.0195 9.11661V14.6H15.0771V7.49063H16.0195L19.6133 12.9887V7.49063H20.5459ZM24.1396 14.6H22.6553L22.665 13.8334H24.1396C24.6475 13.8334 25.0706 13.7276 25.4092 13.516C25.7477 13.3012 26.0016 13.0017 26.1709 12.6176C26.3434 12.2302 26.4297 11.7777 26.4297 11.2602V10.8256C26.4297 10.4187 26.3809 10.0574 26.2832 9.74161C26.1855 9.4226 26.0423 9.15404 25.8535 8.93594C25.6647 8.71459 25.4336 8.54695 25.1602 8.43301C24.89 8.31908 24.5791 8.26212 24.2275 8.26212H22.626V7.49063H24.2275C24.693 7.49063 25.1178 7.56876 25.502 7.72501C25.8861 7.878 26.2165 8.10098 26.4932 8.39395C26.7731 8.68366 26.988 9.03523 27.1377 9.44864C27.2874 9.8588 27.3623 10.321 27.3623 10.8354V11.2602C27.3623 11.7745 27.2874 12.2384 27.1377 12.6518C26.988 13.0619 26.7715 13.4119 26.4883 13.7016C26.2083 13.9913 25.8698 14.2143 25.4727 14.3705C25.0788 14.5235 24.6344 14.6 24.1396 14.6ZM23.1582 7.49063V14.6H22.2158V7.49063H23.1582Z" fill="#FF2840"/>
<path d="M32.2695 7.49063V14.6H31.3271V7.49063H32.2695ZM36.4639 7.49063V14.6H35.5361V7.49063H36.4639ZM38.749 7.49063V8.26212H33.2559V7.49063H38.749Z" fill="white"/>
</svg>
